<svg xmlns="http://www.w3.org/2000/svg" viewBox="0 0 100 100" width="100" height="100">
  <rect width="100" height="100" rx="22.5" fill="#0b0b0c" />
  <path transform="translate(25.177 27.009) scale(0.45986)"
        d="M0.00 49.99L0.00 -0.02L4.82 0.07L9.65 0.16L31.59 41.40C43.66 64.08 53.64 82.75 53.76 82.87C53.89 83.00 58.14 75.27 63.22 65.70C68.30 56.13 73.41 46.49 74.58 44.29C75.75 42.09 81.50 31.26 87.35 20.22L98.00 0.16L102.98 0.07L107.96 -0.02L107.96 49.99L107.96 100.00L102.71 100.00L97.45 100.00L97.37 61.71L97.29 23.42L77.07 61.72L56.85 100.01L53.70 99.93L50.56 99.84L40.73 81.21C35.32 70.96 26.28 53.81 20.63 43.10L10.35 23.62L10.27 61.81L10.19 100.00L5.09 100.00L0.00 100.00L0.00 49.99Z" fill="#ffffff" />
</svg>
